<?xml version="1.0" encoding="utf-8"?>
<!-- Generator: Adobe Illustrator 27.0.0, SVG Export Plug-In . SVG Version: 6.00 Build 0)  -->
<svg version="1.1" id="Layer_1" xmlns="http://www.w3.org/2000/svg" xmlns:xlink="http://www.w3.org/1999/xlink" x="0px" y="0px"
	 viewBox="0 0 250 150" style="enable-background:new 0 0 250 150;" xml:space="preserve">
<style type="text/css">
	.st0{fill:#23B1BC;}
	.st1{fill:#FFFFFF;}
</style>
<g>
	<g>
		<path class="st0" d="M98.68,86.32h-8.56c-3.89,0-7.04-3.15-7.04-7.04v-8.56c0-3.89,3.15-7.04,7.04-7.04h8.56
			c3.89,0,7.04,3.15,7.04,7.04v8.56C105.72,83.17,102.57,86.32,98.68,86.32z"/>
	</g>
	<g>
		<path class="st0" d="M113.84,72.16h1.42v5.97c0,0.82-0.25,1.47-0.75,1.96s-1.14,0.73-1.94,0.73c-0.84,0-1.51-0.21-2-0.64
			s-0.73-1.06-0.71-1.88l0.01-0.04h1.38c0,0.48,0.12,0.84,0.35,1.08s0.56,0.35,0.97,0.35c0.37,0,0.67-0.14,0.91-0.42
			s0.35-0.66,0.35-1.12V72.16z"/>
		<path class="st0" d="M116.63,77.47c0-0.95,0.26-1.72,0.78-2.32s1.23-0.91,2.12-0.91c0.91,0,1.62,0.3,2.14,0.91
			s0.78,1.38,0.78,2.32v0.12c0,0.95-0.26,1.73-0.78,2.33s-1.23,0.9-2.13,0.9c-0.91,0-1.62-0.3-2.14-0.9s-0.78-1.38-0.78-2.33V77.47z
			 M118.05,77.59c0,0.62,0.12,1.12,0.36,1.51s0.62,0.58,1.12,0.58c0.5,0,0.87-0.19,1.12-0.58s0.37-0.89,0.37-1.51v-0.12
			c0-0.61-0.12-1.1-0.37-1.5c-0.25-0.39-0.62-0.59-1.13-0.59c-0.5,0-0.87,0.2-1.11,0.59c-0.24,0.39-0.37,0.89-0.37,1.5V77.59z"/>
		<path class="st0" d="M129.25,77.74c0,0.93-0.22,1.67-0.65,2.24s-1.04,0.85-1.83,0.85c-0.4,0-0.74-0.08-1.04-0.25
			c-0.29-0.16-0.54-0.4-0.73-0.71l-0.17,0.84h-1.15v-9.14h1.42v3.52c0.2-0.27,0.43-0.48,0.7-0.62c0.27-0.14,0.59-0.22,0.96-0.22
			c0.79,0,1.41,0.31,1.84,0.93s0.65,1.43,0.65,2.45V77.74z M127.83,77.61c0-0.66-0.11-1.19-0.34-1.6c-0.23-0.41-0.59-0.61-1.08-0.61
			c-0.32,0-0.58,0.07-0.79,0.21s-0.38,0.34-0.51,0.59v2.66c0.12,0.25,0.29,0.45,0.5,0.59s0.48,0.21,0.81,0.21
			c0.49,0,0.85-0.17,1.07-0.52s0.33-0.81,0.33-1.4V77.61z"/>
		<path class="st0" d="M133.62,80.7v-8.53h2.82c1.08,0,1.96,0.34,2.64,1.01s1.02,1.54,1.02,2.61v1.3c0,1.07-0.34,1.94-1.02,2.61
			s-1.56,1.01-2.64,1.01H133.62z M135.04,73.31v6.25h1.39c0.68,0,1.23-0.23,1.63-0.69s0.6-1.06,0.6-1.78v-1.31
			c0-0.72-0.2-1.31-0.6-1.77s-0.95-0.69-1.63-0.69H135.04z"/>
		<path class="st0" d="M144.2,80.82c-0.93,0-1.65-0.29-2.17-0.88s-0.78-1.34-0.78-2.27v-0.23c0-0.93,0.26-1.7,0.78-2.3
			s1.19-0.9,2.02-0.9c0.85,0,1.5,0.26,1.93,0.79s0.66,1.23,0.66,2.11v0.77h-3.92l-0.01,0.03c0.02,0.52,0.15,0.94,0.41,1.27
			s0.65,0.49,1.17,0.49c0.39,0,0.72-0.05,1-0.14s0.55-0.23,0.79-0.4l0.46,0.93c-0.24,0.21-0.56,0.39-0.96,0.53
			S144.72,80.82,144.2,80.82z M144.05,75.38c-0.37,0-0.67,0.13-0.89,0.4c-0.22,0.27-0.36,0.62-0.42,1.05l0.01,0.03h2.48v-0.11
			c0-0.41-0.09-0.74-0.28-0.99C144.76,75.51,144.46,75.38,144.05,75.38z"/>
		<path class="st0" d="M149.74,77.92h-0.53v2.77h-1.42v-9.14h1.42v5.23h0.49l1.72-2.43h1.67l-2.17,2.92l2.41,3.42h-1.66
			L149.74,77.92z"/>
		<path class="st0" d="M155.48,75.18c0.21-0.3,0.47-0.53,0.77-0.69s0.64-0.25,1-0.25c0.67,0,1.2,0.21,1.57,0.64s0.57,1.08,0.57,1.96
			v3.86h-1.42v-3.87c0-0.5-0.1-0.86-0.29-1.08s-0.48-0.34-0.86-0.34c-0.3,0-0.57,0.05-0.79,0.16s-0.4,0.26-0.54,0.45v4.68h-1.42
			v-9.14h1.42V75.18z"/>
		<path class="st0" d="M160.61,77.47c0-0.95,0.26-1.72,0.78-2.32s1.23-0.91,2.12-0.91c0.91,0,1.62,0.3,2.14,0.91
			s0.78,1.38,0.78,2.32v0.12c0,0.95-0.26,1.73-0.78,2.33s-1.23,0.9-2.13,0.9c-0.91,0-1.62-0.3-2.14-0.9s-0.78-1.38-0.78-2.33V77.47z
			 M162.03,77.59c0,0.62,0.12,1.12,0.36,1.51s0.62,0.58,1.12,0.58c0.5,0,0.87-0.19,1.12-0.58s0.37-0.89,0.37-1.51v-0.12
			c0-0.61-0.12-1.1-0.37-1.5c-0.25-0.39-0.62-0.59-1.13-0.59c-0.5,0-0.87,0.2-1.11,0.59c-0.24,0.39-0.37,0.89-0.37,1.5V77.59z"/>
	</g>
	<g>
		<path class="st1" d="M90.44,80.22c-0.05-0.93-0.11-1.84-0.19-2.73c0.62,0.23,1.11,0.39,1.49,0.47c0.38,0.08,0.73,0.12,1.06,0.12
			c0.37,0,0.69-0.07,0.98-0.2c0.22-0.1,0.39-0.24,0.52-0.4c0.17-0.23,0.28-0.5,0.34-0.8c0.1-0.55,0.18-1.51,0.24-2.88
			s0.08-2.55,0.08-3.55v-0.96c0.87,0.01,1.45,0.02,1.74,0.02c0.36,0,0.98-0.01,1.85-0.02l-0.25,3.62c-0.06,1.07-0.1,2.21-0.13,3.41
			c-0.02,0.93-0.07,1.56-0.14,1.91c-0.07,0.31-0.16,0.57-0.28,0.79c-0.11,0.2-0.25,0.38-0.41,0.54c-0.2,0.19-0.44,0.36-0.73,0.5
			c-0.38,0.2-0.79,0.34-1.22,0.44c-0.47,0.11-0.98,0.16-1.52,0.16C92.89,80.67,91.74,80.52,90.44,80.22z"/>
	</g>
</g>
</svg>
